<svg xmlns="http://www.w3.org/2000/svg" width="110" height="46" viewBox="0 0 110 46" fill="none"><path d="M5.51 45L24.482 10.28H0.302V1.6H36.014V8.978L17.538 45H5.51ZM55.9552 45.682C53.3512 45.682 50.9332 45.372 48.7012 44.752C46.5106 44.0907 44.6299 43.202 43.0592 42.086C41.5299 40.97 40.3312 39.606 39.4632 37.994C38.5952 36.382 38.1612 34.6253 38.1612 32.724C38.1612 30.616 38.7812 28.694 40.0212 26.958C41.3026 25.1807 42.9559 23.8167 44.9812 22.866C43.3279 21.8327 41.9846 20.51 40.9512 18.898C39.9592 17.2447 39.4632 15.4467 39.4632 13.504C39.4632 11.7267 39.8766 10.0733 40.7032 8.544C41.5712 6.97333 42.7286 5.63 44.1752 4.514C45.6219 3.398 47.3579 2.53 49.3832 1.91C51.4086 1.24866 53.5786 0.917998 55.8932 0.917998C58.2492 0.917998 60.4399 1.24866 62.4652 1.91C64.4906 2.53 66.2266 3.398 67.6732 4.514C69.1612 5.63 70.3186 6.97333 71.1452 8.544C72.0132 10.0733 72.4472 11.7267 72.4472 13.504C72.4472 15.4467 71.9306 17.2447 70.8972 18.898C69.9052 20.51 68.5826 21.8327 66.9292 22.866C68.9546 23.8167 70.5872 25.1807 71.8272 26.958C73.1086 28.694 73.7492 30.616 73.7492 32.724C73.7492 34.6253 73.3152 36.382 72.4472 37.994C71.5792 39.606 70.3599 40.97 68.7892 42.086C67.2599 43.202 65.3792 44.0907 63.1472 44.752C60.9566 45.372 58.5592 45.682 55.9552 45.682ZM55.9552 19.27C57.8566 19.27 59.4272 18.774 60.6672 17.782C61.9486 16.79 62.5892 15.5913 62.5892 14.186C62.5892 12.7393 61.9486 11.5407 60.6672 10.59C59.4272 9.598 57.8566 9.102 55.9552 9.102C54.0539 9.102 52.4626 9.598 51.1812 10.59C49.9412 11.5407 49.3212 12.7393 49.3212 14.186C49.3212 15.5913 49.9412 16.79 51.1812 17.782C52.4626 18.774 54.0539 19.27 55.9552 19.27ZM55.9552 37.498C58.1872 37.498 60.0266 37.002 61.4732 36.01C62.9199 34.9767 63.6432 33.6747 63.6432 32.104C63.6432 30.5333 62.9199 29.252 61.4732 28.26C60.0266 27.2267 58.1872 26.71 55.9552 26.71C53.7232 26.71 51.8839 27.2267 50.4372 28.26C48.9906 29.252 48.2672 30.5333 48.2672 32.104C48.2672 33.6747 48.9906 34.9767 50.4372 36.01C51.8839 37.002 53.7232 37.498 55.9552 37.498ZM83.5014 30.51C81.4014 30.51 79.7214 29.824 78.4614 28.452C77.2294 27.052 76.6134 25.204 76.6134 22.908C76.6134 20.64 77.2434 18.82 78.5034 17.448C79.7634 16.048 81.4294 15.348 83.5014 15.348C85.5734 15.348 87.2394 16.048 88.4994 17.448C89.7594 18.82 90.3894 20.64 90.3894 22.908C90.3894 25.204 89.7594 27.052 88.4994 28.452C87.2674 29.824 85.6014 30.51 83.5014 30.51ZM83.5014 26.982C84.4254 26.982 85.1394 26.632 85.6434 25.932C86.1754 25.204 86.4414 24.196 86.4414 22.908C86.4414 21.676 86.1754 20.696 85.6434 19.968C85.1114 19.24 84.3974 18.876 83.5014 18.876C82.6054 18.876 81.8914 19.24 81.3594 19.968C80.8554 20.696 80.6034 21.676 80.6034 22.908C80.6034 24.196 80.8554 25.204 81.3594 25.932C81.8634 26.632 82.5774 26.982 83.5014 26.982ZM86.7354 45H81.7794L98.4534 15.6H103.451L86.7354 45ZM102.233 45.21C100.133 45.21 98.4534 44.524 97.1934 43.152C95.9614 41.752 95.3454 39.904 95.3454 37.608C95.3454 35.34 95.9754 33.52 97.2354 32.148C98.4954 30.748 100.161 30.048 102.233 30.048C104.305 30.048 105.971 30.748 107.231 32.148C108.491 33.52 109.121 35.34 109.121 37.608C109.121 39.904 108.491 41.752 107.231 43.152C105.999 44.524 104.333 45.21 102.233 45.21ZM102.233 41.682C103.157 41.682 103.871 41.332 104.375 40.632C104.907 39.904 105.173 38.896 105.173 37.608C105.173 36.376 104.907 35.396 104.375 34.668C103.843 33.94 103.129 33.576 102.233 33.576C101.337 33.576 100.623 33.94 100.091 34.668C99.5874 35.396 99.3354 36.376 99.3354 37.608C99.3354 38.896 99.5874 39.904 100.091 40.632C100.595 41.332 101.309 41.682 102.233 41.682Z" fill="url(#paint0_linear_5_293)"></path><defs><linearGradient id="paint0_linear_5_293" x1="25.7931" y1="9.50281" x2="74.451" y2="33.4024" gradientUnits="userSpaceOnUse"><stop stop-color="#72C1BA"></stop><stop offset="1" stop-color="#ED6464"></stop></linearGradient></defs></svg>