<svg xmlns="http://www.w3.org/2000/svg" width="52" height="52" viewBox="0 0 52 52" fill="none"><g filter="url(#filter0_i_25_96)"><rect width="52" height="52" rx="5" fill="#E5FAF9"></rect></g><path d="M34.905 12H16.095C15.507 12 15.0459 12.5049 15.0991 13.0905L17.3879 38.267C17.4347 38.7821 17.8666 39.1765 18.3838 39.1765H32.6162C33.1334 39.1765 33.5653 38.7821 33.6121 38.267L35.9009 13.0905C35.9541 12.5049 35.493 12 34.905 12Z" stroke="#46C8C5" stroke-width="2"></path><path d="M15.6177 17.5588C17.6765 17.5588 22.5353 18.053 25.5 20.0294C29.1697 22.4758 35.2618 19.4717 35.3806 18.813L35.3824 18.7941C35.3824 18.8002 35.3818 18.8065 35.3806 18.813L33.5631 38.2C33.5413 38.4319 33.4393 38.649 33.2746 38.8137L33.2047 38.8836C33.0171 39.0711 32.7628 39.1765 32.4976 39.1765H18.7063C18.3275 39.1765 17.9813 38.9625 17.8119 38.6237L17.555 38.11C17.4992 37.9984 17.4648 37.8775 17.4535 37.7533L15.6177 17.5588Z" fill="#46C8C5" stroke="#46C8C5"></path><circle cx="27.9706" cy="27.4412" r="3.08824" fill="white"></circle><circle cx="21.7941" cy="32.3824" r="1.85294" fill="white"></circle><defs><filter id="filter0_i_25_96" x="0" y="0" width="52" height="54" filterUnits="userSpaceOnUse" color-interpolation-filters="sRGB"><feGaussianBlur stdDeviation="2"></feGaussianBlur></filter></defs></svg>