<svg xmlns="http://www.w3.org/2000/svg" width="93" height="94" viewBox="0 0 93 94" fill="none"><path d="M46.4453 89.8876C69.8872 89.8876 88.8906 70.8842 88.8906 47.4424C88.8906 24.0006 69.8872 4.99719 46.4453 4.99719C23.0034 4.99719 4 24.0006 4 47.4424C4 70.8842 23.0034 89.8876 46.4453 89.8876Z" stroke="#DAF4F3" stroke-width="8" stroke-miterlimit="10"></path><path d="M52.066 4.99719C61.1693 6.21877 69.6327 10.3731 76.1855 16.8367C82.7383 23.3003 87.0271 31.7243 88.408 40.8443C89.789 49.9643 88.1876 59.2881 83.8443 67.4162C79.501 75.5443 72.65 82.0381 64.3199 85.9229C55.9897 89.8076 46.6298 90.8738 37.6451 88.9612C28.6604 87.0486 20.5358 82.2605 14.4907 75.3156C8.44562 68.3708 4.80631 59.6439 4.11904 50.4449C3.43178 41.2459 5.73364 32.0712 10.6791 24.298" stroke="url(#paint0_linear_5_286)" stroke-width="8" stroke-miterlimit="10" stroke-linecap="round"></path><path d="M65.3475 48.067C65.3484 45.8445 64.9504 43.6393 64.1716 41.5531C63.6626 47.5659 60.4047 50.6224 57.0145 49.1893C53.8381 47.8465 55.9964 42.6104 56.139 40.1101C56.4037 35.8761 56.139 31.0257 48.3099 26.9972C51.5576 33.1102 48.6815 36.9082 45.6731 37.1437C42.3287 37.3993 39.2694 34.3127 40.3994 29.3121C36.7394 31.9627 36.6376 36.4322 37.7626 39.3334C38.9436 42.3398 37.7168 44.8451 34.8458 45.1257C31.6388 45.4364 29.8572 41.7435 31.4963 35.861C29.4959 38.1818 28.0943 40.9437 27.4106 43.912C26.727 46.8802 26.7815 49.967 27.5695 52.9101C28.3576 55.8531 29.8558 58.5654 31.937 60.8164C34.0181 63.0674 36.6206 64.7904 39.5232 65.8392C42.4259 66.888 45.5429 67.2314 48.6093 66.8404C51.6757 66.4493 54.6008 65.3352 57.136 63.5929C59.6713 61.8506 61.7417 59.5315 63.1713 56.8328C64.601 54.1341 65.3475 51.1355 65.3475 48.092V48.067Z" fill="#F4900C"></path><path d="M57.8857 53.6234C58.0537 57.0557 54.9893 58.3986 53.3451 57.7472C50.9679 56.8102 51.6042 55.2017 50.9933 51.8646C50.3825 48.5274 48.0256 46.2125 44.5438 45.1953C47.089 52.2104 43.1337 54.8309 41.062 55.2969C38.9902 55.7629 36.8217 55.297 36.5824 50.8374C35.3142 52.076 34.3081 53.5499 33.6222 55.1737C32.9363 56.7975 32.5842 58.5391 32.5864 60.2976C32.5864 60.7085 32.5865 61.1094 32.6475 61.5103C36.2391 65.006 41.0862 66.9666 46.1371 66.9666C51.1879 66.9666 56.0351 65.006 59.6266 61.5103C59.6623 61.1094 59.6877 60.7085 59.6877 60.2976C59.6958 57.9553 59.0741 55.6527 57.8857 53.6234Z" fill="#FFCC4D"></path><defs><linearGradient id="paint0_linear_5_286" x1="96.509" y1="18.6014" x2="-22.1202" y2="20.7781" gradientUnits="userSpaceOnUse"><stop offset="0.359375" stop-color="#71C0B9"></stop><stop offset="0.578125" stop-color="#FCDB85"></stop><stop offset="0.802083" stop-color="#ED6464"></stop></linearGradient></defs></svg>