<svg xmlns="http://www.w3.org/2000/svg" width="310" height="270" viewBox="0 0 310 270" fill="none"><path d="M265.738 41.6983H272.506V43.7863H265.738V41.6983ZM278.027 35.2723V47.8723H275.561V37.7743L273.095 38.7823V36.6403L276.461 35.2723H278.027ZM284.302 35.2723V47.8723H281.836V37.7743L279.37 38.7823V36.6403L282.736 35.2723H284.302ZM288.544 41.6623C287.68 41.6623 286.984 41.3623 286.456 40.7623C285.928 40.1623 285.664 39.3763 285.664 38.4043C285.664 37.4443 285.928 36.6643 286.456 36.0643C286.984 35.4643 287.68 35.1643 288.544 35.1643C289.396 35.1643 290.086 35.4643 290.614 36.0643C291.142 36.6643 291.406 37.4443 291.406 38.4043C291.406 39.3763 291.142 40.1623 290.614 40.7623C290.098 41.3623 289.408 41.6623 288.544 41.6623ZM288.544 40.3483C288.976 40.3483 289.312 40.1743 289.552 39.8263C289.804 39.4783 289.93 39.0043 289.93 38.4043C289.93 37.8163 289.804 37.3483 289.552 37.0003C289.3 36.6523 288.964 36.4783 288.544 36.4783C288.112 36.4783 287.77 36.6523 287.518 37.0003C287.278 37.3483 287.152 37.8163 287.14 38.4043C287.152 39.0043 287.278 39.4783 287.518 39.8263C287.758 40.1743 288.1 40.3483 288.544 40.3483ZM289.678 47.8723H287.842L294.97 35.2723H296.824L289.678 47.8723ZM296.284 47.9623C295.42 47.9623 294.724 47.6623 294.196 47.0623C293.668 46.4623 293.404 45.6763 293.404 44.7043C293.404 43.7443 293.668 42.9643 294.196 42.3643C294.724 41.7643 295.42 41.4643 296.284 41.4643C297.136 41.4643 297.826 41.7643 298.354 42.3643C298.882 42.9643 299.146 43.7443 299.146 44.7043C299.146 45.6763 298.882 46.4623 298.354 47.0623C297.838 47.6623 297.148 47.9623 296.284 47.9623ZM296.284 46.6483C296.716 46.6483 297.052 46.4743 297.292 46.1263C297.544 45.7783 297.67 45.3043 297.67 44.7043C297.67 44.1163 297.544 43.6483 297.292 43.3003C297.04 42.9523 296.704 42.7783 296.284 42.7783C295.852 42.7783 295.51 42.9523 295.258 43.3003C295.018 43.6483 294.892 44.1163 294.88 44.7043C294.892 45.3043 295.018 45.7783 295.258 46.1263C295.498 46.4743 295.84 46.6483 296.284 46.6483Z" fill="#848484"></path><path d="M18.6131 35.6303C18.6131 36.293 18.5104 36.8996 18.3051 37.4503C18.0997 37.9916 17.8057 38.4536 17.4231 38.8363C17.0497 39.2096 16.5924 39.499 16.0511 39.7043C15.5191 39.9096 14.9264 40.0123 14.2731 40.0123C13.6104 40.0123 13.0084 39.9096 12.4671 39.7043C11.9351 39.499 11.4824 39.2096 11.1091 38.8363C10.7357 38.4536 10.4464 37.9916 10.2411 37.4503C10.0357 36.909 9.93308 36.3023 9.93308 35.6303V30.0723H11.9631V35.6303C11.9631 36.3863 12.1731 36.993 12.5931 37.4503C13.0224 37.9076 13.5871 38.1363 14.2871 38.1363C14.9871 38.1363 15.5424 37.9076 15.9531 37.4503C16.3731 36.993 16.5831 36.3863 16.5831 35.6303V30.0723H18.6131V35.6303ZM20.1056 42.7983V32.5783H21.9956V33.1803C22.2849 32.947 22.6069 32.7743 22.9616 32.6623C23.3163 32.541 23.6849 32.4803 24.0676 32.4803C24.5809 32.4803 25.0616 32.5783 25.5096 32.7743C25.9669 32.9703 26.3636 33.2363 26.6996 33.5723C27.0356 33.9083 27.2969 34.305 27.4836 34.7623C27.6796 35.2196 27.7776 35.7096 27.7776 36.2323C27.7776 36.755 27.6796 37.245 27.4836 37.7023C27.2876 38.1596 27.0216 38.5563 26.6856 38.8923C26.3496 39.2283 25.9483 39.4943 25.4816 39.6903C25.0243 39.877 24.5343 39.9703 24.0116 39.9703C23.6569 39.9703 23.3069 39.9236 22.9616 39.8303C22.6256 39.7276 22.3129 39.583 22.0236 39.3963V42.7983H20.1056ZM23.7596 34.1183C23.4143 34.1183 23.0923 34.179 22.7936 34.3003C22.4949 34.4123 22.2383 34.5803 22.0236 34.8043V37.6743C22.2289 37.8796 22.4809 38.043 22.7796 38.1643C23.0876 38.2856 23.4143 38.3463 23.7596 38.3463C24.3569 38.3463 24.8609 38.1456 25.2716 37.7443C25.6823 37.3336 25.8876 36.8296 25.8876 36.2323C25.8876 35.635 25.6776 35.1356 25.2576 34.7343C24.8469 34.3236 24.3476 34.1183 23.7596 34.1183ZM28.9513 42.7983V32.5783H30.8413V33.1803C31.1306 32.947 31.4526 32.7743 31.8073 32.6623C32.162 32.541 32.5306 32.4803 32.9133 32.4803C33.4266 32.4803 33.9073 32.5783 34.3553 32.7743C34.8126 32.9703 35.2093 33.2363 35.5453 33.5723C35.8813 33.9083 36.1426 34.305 36.3293 34.7623C36.5253 35.2196 36.6233 35.7096 36.6233 36.2323C36.6233 36.755 36.5253 37.245 36.3293 37.7023C36.1333 38.1596 35.8673 38.5563 35.5313 38.8923C35.1953 39.2283 34.794 39.4943 34.3273 39.6903C33.87 39.877 33.38 39.9703 32.8573 39.9703C32.5026 39.9703 32.1526 39.9236 31.8073 39.8303C31.4713 39.7276 31.1586 39.583 30.8693 39.3963V42.7983H28.9513ZM32.6053 34.1183C32.26 34.1183 31.938 34.179 31.6393 34.3003C31.3406 34.4123 31.084 34.5803 30.8693 34.8043V37.6743C31.0746 37.8796 31.3266 38.043 31.6253 38.1643C31.9333 38.2856 32.26 38.3463 32.6053 38.3463C33.2026 38.3463 33.7066 38.1456 34.1173 37.7443C34.528 37.3336 34.7333 36.8296 34.7333 36.2323C34.7333 35.635 34.5233 35.1356 34.1033 34.7343C33.6926 34.3236 33.1933 34.1183 32.6053 34.1183ZM44.3897 38.9623C43.9417 39.3263 43.4797 39.5923 43.0037 39.7603C42.537 39.9283 42.0144 40.0123 41.4357 40.0123C40.885 40.0123 40.367 39.9143 39.8817 39.7183C39.4057 39.5223 38.9904 39.2563 38.6357 38.9203C38.2904 38.5843 38.015 38.1876 37.8097 37.7303C37.6137 37.2636 37.5157 36.7643 37.5157 36.2323C37.5157 35.7096 37.609 35.2196 37.7957 34.7623C37.9917 34.2956 38.2577 33.8943 38.5937 33.5583C38.9297 33.213 39.3264 32.9423 39.7837 32.7463C40.2504 32.5503 40.745 32.4523 41.2677 32.4523C41.781 32.4523 42.257 32.555 42.6957 32.7603C43.1437 32.9563 43.5264 33.227 43.8437 33.5723C44.1704 33.9176 44.4224 34.333 44.5997 34.8183C44.7864 35.2943 44.8797 35.8123 44.8797 36.3723V36.8763H39.4477C39.5784 37.3336 39.8304 37.7023 40.2037 37.9823C40.577 38.2623 41.0157 38.4023 41.5197 38.4023C41.837 38.4023 42.1357 38.351 42.4157 38.2483C42.6957 38.1456 42.9337 38.001 43.1297 37.8143L44.3897 38.9623ZM41.2257 34.0343C40.787 34.0343 40.409 34.1696 40.0917 34.4403C39.7744 34.7016 39.555 35.0563 39.4337 35.5043H43.0037C42.8824 35.075 42.6584 34.725 42.3317 34.4543C42.0144 34.1743 41.6457 34.0343 41.2257 34.0343ZM46.0548 39.8723V32.5783H47.9728V33.3763C48.2062 33.059 48.4862 32.821 48.8128 32.6623C49.1488 32.4943 49.5175 32.4103 49.9188 32.4103C50.1055 32.4196 50.2595 32.4383 50.3808 32.4663C50.5115 32.485 50.6235 32.5223 50.7168 32.5783V34.2583C50.5768 34.193 50.4228 34.1463 50.2548 34.1183C50.0868 34.081 49.9142 34.0623 49.7368 34.0623C49.3635 34.0623 49.0182 34.1556 48.7008 34.3423C48.3928 34.529 48.1502 34.7996 47.9728 35.1543V39.8723H46.0548ZM24.9339 50.2323C24.9339 50.755 24.8359 51.245 24.6399 51.7023C24.4439 52.1596 24.1779 52.5563 23.8419 52.8923C23.5059 53.2283 23.1045 53.4943 22.6379 53.6903C22.1805 53.877 21.6905 53.9703 21.1679 53.9703C20.8039 53.9703 20.4492 53.919 20.1039 53.8163C19.7585 53.7136 19.4412 53.569 19.1519 53.3823V53.8723H17.2619V44.0723L19.1799 43.6523V47.1523C19.4692 46.9376 19.7865 46.7743 20.1319 46.6623C20.4865 46.541 20.8505 46.4803 21.2239 46.4803C21.7372 46.4803 22.2179 46.5783 22.6659 46.7743C23.1232 46.9703 23.5199 47.2363 23.8559 47.5723C24.1919 47.9083 24.4532 48.305 24.6399 48.7623C24.8359 49.2196 24.9339 49.7096 24.9339 50.2323ZM20.9159 48.1183C20.5705 48.1183 20.2485 48.179 19.9499 48.3003C19.6512 48.4123 19.3945 48.5803 19.1799 48.8043V51.6743C19.3852 51.8796 19.6372 52.043 19.9359 52.1643C20.2439 52.2856 20.5705 52.3463 20.9159 52.3463C21.5132 52.3463 22.0172 52.1456 22.4279 51.7443C22.8385 51.3336 23.0439 50.8296 23.0439 50.2323C23.0439 49.635 22.8339 49.1356 22.4139 48.7343C22.0032 48.3236 21.5039 48.1183 20.9159 48.1183ZM25.8263 50.2323C25.8263 49.7003 25.9243 49.2056 26.1203 48.7483C26.3256 48.2816 26.6009 47.8803 26.9463 47.5443C27.3009 47.199 27.7163 46.9283 28.1923 46.7323C28.6683 46.5363 29.1769 46.4383 29.7183 46.4383C30.2596 46.4383 30.7683 46.5363 31.2443 46.7323C31.7203 46.9283 32.1309 47.199 32.4762 47.5443C32.8309 47.8803 33.1063 48.2816 33.3023 48.7483C33.5076 49.2056 33.6103 49.7003 33.6103 50.2323C33.6103 50.7643 33.5076 51.2636 33.3023 51.7303C33.1063 52.1876 32.8309 52.5843 32.4762 52.9203C32.1309 53.2563 31.7203 53.5223 31.2443 53.7183C30.7683 53.9143 30.2596 54.0123 29.7183 54.0123C29.1769 54.0123 28.6683 53.9143 28.1923 53.7183C27.7163 53.5223 27.3009 53.2563 26.9463 52.9203C26.6009 52.5843 26.3256 52.1876 26.1203 51.7303C25.9243 51.2636 25.8263 50.7643 25.8263 50.2323ZM29.7183 52.3463C30.2783 52.3463 30.7543 52.141 31.1463 51.7303C31.5383 51.3196 31.7343 50.8203 31.7343 50.2323C31.7343 49.635 31.5383 49.131 31.1463 48.7203C30.7543 48.3096 30.2783 48.1043 29.7183 48.1043C29.1583 48.1043 28.6823 48.3096 28.2903 48.7203C27.8983 49.131 27.7023 49.635 27.7023 50.2323C27.7023 50.8203 27.8983 51.3196 28.2903 51.7303C28.6823 52.141 29.1583 52.3463 29.7183 52.3463ZM40.2899 53.8723V53.2703C40.0006 53.5036 39.6786 53.681 39.3239 53.8023C38.9692 53.9143 38.6006 53.9703 38.2179 53.9703C37.7046 53.9703 37.2192 53.8723 36.7619 53.6763C36.3139 53.4803 35.9219 53.2143 35.5859 52.8783C35.2499 52.5423 34.9839 52.1456 34.7879 51.6883C34.6012 51.231 34.5079 50.741 34.5079 50.2183C34.5079 49.6956 34.6059 49.2056 34.8019 48.7483C34.9979 48.291 35.2639 47.8943 35.5999 47.5583C35.9359 47.2223 36.3326 46.961 36.7899 46.7743C37.2566 46.5783 37.7512 46.4803 38.2739 46.4803C38.6286 46.4803 38.9739 46.5316 39.3099 46.6343C39.6552 46.7276 39.9726 46.8676 40.2619 47.0543V44.0723L42.1799 43.6523V53.8723H40.2899ZM36.3979 50.2183C36.3979 50.8063 36.6032 51.3056 37.0139 51.7163C37.4246 52.127 37.9286 52.3323 38.5259 52.3323C38.8806 52.3323 39.2026 52.2716 39.4919 52.1503C39.7906 52.029 40.0472 51.8563 40.2619 51.6323V48.7903C40.0566 48.5756 39.7999 48.4076 39.4919 48.2863C39.1932 48.165 38.8712 48.1043 38.5259 48.1043C37.9192 48.1043 37.4106 48.3096 36.9999 48.7203C36.5986 49.1216 36.3979 49.621 36.3979 50.2183ZM45.6636 54.2083L45.7756 53.9423L42.9336 46.5783H45.0476L46.8536 51.5483L48.9256 46.5783H50.9976L47.6376 54.4463C47.2643 55.3236 46.8303 55.949 46.3356 56.3223C45.8409 56.6956 45.1969 56.8823 44.4036 56.8823C44.2356 56.8823 44.0723 56.873 43.9136 56.8543C43.7643 56.845 43.6429 56.8263 43.5496 56.7983V55.1463C43.6429 55.165 43.7409 55.179 43.8436 55.1883C43.9463 55.1976 44.0723 55.2023 44.2216 55.2023C44.5669 55.2023 44.8563 55.1183 45.0896 54.9503C45.3323 54.7823 45.5236 54.535 45.6636 54.2083Z" fill="#848484"></path><path d="M265.738 85.6983H272.506V87.7863H265.738V85.6983ZM278.95 92.0703C278.218 92.0703 277.54 91.9803 276.916 91.8003C276.304 91.6083 275.776 91.3503 275.332 91.0263C274.888 90.7023 274.54 90.3123 274.288 89.8563C274.048 89.4003 273.928 88.8963 273.928 88.3443C273.928 87.6963 274.126 87.1083 274.522 86.5803C274.93 86.0523 275.458 85.6563 276.106 85.3923C275.578 85.0923 275.152 84.7023 274.828 84.2223C274.504 83.7423 274.342 83.2083 274.342 82.6203C274.342 82.1163 274.456 81.6483 274.684 81.2163C274.924 80.7843 275.248 80.4123 275.656 80.1003C276.064 79.7763 276.55 79.5243 277.114 79.3443C277.69 79.1643 278.302 79.0743 278.95 79.0743C279.598 79.0743 280.204 79.1643 280.768 79.3443C281.344 79.5243 281.836 79.7763 282.244 80.1003C282.664 80.4123 282.988 80.7843 283.216 81.2163C283.456 81.6483 283.576 82.1163 283.576 82.6203C283.576 83.2083 283.414 83.7483 283.09 84.2403C282.766 84.7203 282.34 85.1043 281.812 85.3923C282.46 85.6563 282.982 86.0523 283.378 86.5803C283.786 87.1083 283.99 87.6963 283.99 88.3443C283.99 88.8963 283.864 89.4003 283.612 89.8563C283.372 90.3123 283.03 90.7023 282.586 91.0263C282.142 91.3503 281.608 91.6083 280.984 91.8003C280.372 91.9803 279.694 92.0703 278.95 92.0703ZM278.95 84.4743C279.574 84.4743 280.096 84.3123 280.516 83.9883C280.948 83.6643 281.164 83.2623 281.164 82.7823C281.164 82.3023 280.954 81.9003 280.534 81.5763C280.114 81.2403 279.586 81.0723 278.95 81.0723C278.326 81.0723 277.804 81.2403 277.384 81.5763C276.964 81.9003 276.754 82.3023 276.754 82.7823C276.754 83.2623 276.964 83.6643 277.384 83.9883C277.816 84.3123 278.338 84.4743 278.95 84.4743ZM278.95 90.0543C279.694 90.0543 280.306 89.8803 280.786 89.5323C281.278 89.1843 281.524 88.7403 281.524 88.2003C281.524 87.6723 281.278 87.2343 280.786 86.8863C280.306 86.5263 279.694 86.3463 278.95 86.3463C278.218 86.3463 277.606 86.5263 277.114 86.8863C276.634 87.2343 276.394 87.6723 276.394 88.2003C276.394 88.7403 276.634 89.1843 277.114 89.5323C277.606 89.8803 278.218 90.0543 278.95 90.0543ZM287.928 85.6623C287.064 85.6623 286.368 85.3623 285.84 84.7623C285.312 84.1623 285.048 83.3763 285.048 82.4043C285.048 81.4443 285.312 80.6643 285.84 80.0643C286.368 79.4643 287.064 79.1643 287.928 79.1643C288.78 79.1643 289.47 79.4643 289.998 80.0643C290.526 80.6643 290.79 81.4443 290.79 82.4043C290.79 83.3763 290.526 84.1623 289.998 84.7623C289.482 85.3623 288.792 85.6623 287.928 85.6623ZM287.928 84.3483C288.36 84.3483 288.696 84.1743 288.936 83.8263C289.188 83.4783 289.314 83.0043 289.314 82.4043C289.314 81.8163 289.188 81.3483 288.936 81.0003C288.684 80.6523 288.348 80.4783 287.928 80.4783C287.496 80.4783 287.154 80.6523 286.902 81.0003C286.662 81.3483 286.536 81.8163 286.524 82.4043C286.536 83.0043 286.662 83.4783 286.902 83.8263C287.142 84.1743 287.484 84.3483 287.928 84.3483ZM289.062 91.8723H287.226L294.354 79.2723H296.208L289.062 91.8723ZM295.668 91.9623C294.804 91.9623 294.108 91.6623 293.58 91.0623C293.052 90.4623 292.788 89.6763 292.788 88.7043C292.788 87.7443 293.052 86.9643 293.58 86.3643C294.108 85.7643 294.804 85.4643 295.668 85.4643C296.52 85.4643 297.21 85.7643 297.738 86.3643C298.266 86.9643 298.53 87.7443 298.53 88.7043C298.53 89.6763 298.266 90.4623 297.738 91.0623C297.222 91.6623 296.532 91.9623 295.668 91.9623ZM295.668 90.6483C296.1 90.6483 296.436 90.4743 296.676 90.1263C296.928 89.7783 297.054 89.3043 297.054 88.7043C297.054 88.1163 296.928 87.6483 296.676 87.3003C296.424 86.9523 296.088 86.7783 295.668 86.7783C295.236 86.7783 294.894 86.9523 294.642 87.3003C294.402 87.6483 294.276 88.1163 294.264 88.7043C294.276 89.3043 294.402 89.7783 294.642 90.1263C294.882 90.4743 295.224 90.6483 295.668 90.6483Z" fill="#848484"></path><path d="M265.738 129.698H272.506V131.786H265.738V129.698ZM273.313 135.872V134.144L278.281 129.698C278.845 129.182 279.247 128.732 279.487 128.348C279.727 127.952 279.847 127.544 279.847 127.124C279.847 126.572 279.631 126.116 279.199 125.756C278.767 125.396 278.227 125.216 277.579 125.216C276.979 125.216 276.415 125.336 275.887 125.576C275.371 125.816 274.807 126.212 274.195 126.764L272.809 125.108C273.541 124.448 274.315 123.95 275.131 123.614C275.947 123.278 276.787 123.11 277.651 123.11C278.323 123.11 278.941 123.206 279.505 123.398C280.081 123.578 280.567 123.836 280.963 124.172C281.371 124.508 281.683 124.916 281.899 125.396C282.127 125.876 282.241 126.398 282.241 126.962C282.241 127.682 282.061 128.348 281.701 128.96C281.341 129.572 280.717 130.274 279.829 131.066L276.751 133.802H282.403V135.872H273.313ZM289.103 136.052C288.275 136.052 287.519 135.896 286.835 135.584C286.151 135.272 285.569 134.834 285.089 134.27C284.609 133.706 284.231 133.022 283.955 132.218C283.691 131.414 283.559 130.526 283.559 129.554C283.559 128.594 283.691 127.712 283.955 126.908C284.231 126.104 284.609 125.42 285.089 124.856C285.581 124.292 286.169 123.854 286.853 123.542C287.537 123.23 288.287 123.074 289.103 123.074C289.931 123.074 290.687 123.23 291.371 123.542C292.055 123.854 292.637 124.292 293.117 124.856C293.597 125.42 293.969 126.104 294.233 126.908C294.509 127.712 294.647 128.594 294.647 129.554C294.647 130.526 294.515 131.414 294.251 132.218C293.987 133.022 293.609 133.706 293.117 134.27C292.637 134.834 292.055 135.272 291.371 135.584C290.687 135.896 289.931 136.052 289.103 136.052ZM289.103 133.91C290.075 133.91 290.843 133.52 291.407 132.74C291.971 131.96 292.253 130.898 292.253 129.554C292.253 128.234 291.965 127.184 291.389 126.404C290.825 125.612 290.063 125.216 289.103 125.216C288.143 125.216 287.381 125.612 286.817 126.404C286.253 127.184 285.971 128.234 285.971 129.554C285.971 130.898 286.253 131.96 286.817 132.74C287.381 133.52 288.143 133.91 289.103 133.91ZM298.546 129.662C297.682 129.662 296.986 129.362 296.458 128.762C295.93 128.162 295.666 127.376 295.666 126.404C295.666 125.444 295.93 124.664 296.458 124.064C296.986 123.464 297.682 123.164 298.546 123.164C299.398 123.164 300.088 123.464 300.616 124.064C301.144 124.664 301.408 125.444 301.408 126.404C301.408 127.376 301.144 128.162 300.616 128.762C300.1 129.362 299.41 129.662 298.546 129.662ZM298.546 128.348C298.978 128.348 299.314 128.174 299.554 127.826C299.806 127.478 299.932 127.004 299.932 126.404C299.932 125.816 299.806 125.348 299.554 125C299.302 124.652 298.966 124.478 298.546 124.478C298.114 124.478 297.772 124.652 297.52 125C297.28 125.348 297.154 125.816 297.142 126.404C297.154 127.004 297.28 127.478 297.52 127.826C297.76 128.174 298.102 128.348 298.546 128.348ZM299.68 135.872H297.844L304.972 123.272H306.826L299.68 135.872ZM306.286 135.962C305.422 135.962 304.726 135.662 304.198 135.062C303.67 134.462 303.406 133.676 303.406 132.704C303.406 131.744 303.67 130.964 304.198 130.364C304.726 129.764 305.422 129.464 306.286 129.464C307.138 129.464 307.828 129.764 308.356 130.364C308.884 130.964 309.148 131.744 309.148 132.704C309.148 133.676 308.884 134.462 308.356 135.062C307.84 135.662 307.15 135.962 306.286 135.962ZM306.286 134.648C306.718 134.648 307.054 134.474 307.294 134.126C307.546 133.778 307.672 133.304 307.672 132.704C307.672 132.116 307.546 131.648 307.294 131.3C307.042 130.952 306.706 130.778 306.286 130.778C305.854 130.778 305.512 130.952 305.26 131.3C305.02 131.648 304.894 132.116 304.882 132.704C304.894 133.304 305.02 133.778 305.26 134.126C305.5 134.474 305.842 134.648 306.286 134.648Z" fill="#848484"></path><path d="M265.738 173.698H272.506V175.786H265.738V173.698ZM278.027 167.272V179.872H275.561V169.774L273.095 170.782V168.64L276.461 167.272H278.027ZM285.148 180.07C284.32 180.07 283.564 179.92 282.88 179.62C282.196 179.308 281.608 178.882 281.116 178.342C280.636 177.79 280.258 177.13 279.982 176.362C279.718 175.594 279.586 174.748 279.586 173.824C279.586 172.816 279.736 171.898 280.036 171.07C280.336 170.23 280.756 169.516 281.296 168.928C281.836 168.34 282.49 167.884 283.258 167.56C284.026 167.236 284.872 167.074 285.796 167.074C286.48 167.074 287.158 167.188 287.83 167.416C288.502 167.632 289.066 167.926 289.522 168.298L288.118 170.062C287.746 169.774 287.356 169.564 286.948 169.432C286.54 169.3 286.096 169.234 285.616 169.234C284.536 169.234 283.684 169.606 283.06 170.35C282.448 171.082 282.112 172.126 282.052 173.482C282.46 173.026 282.964 172.672 283.564 172.42C284.164 172.156 284.8 172.024 285.472 172.024C286.108 172.024 286.696 172.12 287.236 172.312C287.776 172.504 288.238 172.774 288.622 173.122C289.018 173.458 289.324 173.866 289.54 174.346C289.756 174.814 289.864 175.33 289.864 175.894C289.864 176.494 289.744 177.052 289.504 177.568C289.264 178.072 288.934 178.51 288.514 178.882C288.106 179.254 287.608 179.548 287.02 179.764C286.444 179.968 285.82 180.07 285.148 180.07ZM285.076 173.968C284.512 173.968 283.984 174.088 283.492 174.328C283.012 174.568 282.58 174.91 282.196 175.354C282.388 176.146 282.736 176.782 283.24 177.262C283.744 177.742 284.344 177.982 285.04 177.982C285.724 177.982 286.294 177.79 286.75 177.406C287.218 177.022 287.452 176.536 287.452 175.948C287.452 175.36 287.23 174.886 286.786 174.526C286.342 174.154 285.772 173.968 285.076 173.968ZM293.712 173.662C292.848 173.662 292.152 173.362 291.624 172.762C291.096 172.162 290.832 171.376 290.832 170.404C290.832 169.444 291.096 168.664 291.624 168.064C292.152 167.464 292.848 167.164 293.712 167.164C294.564 167.164 295.254 167.464 295.782 168.064C296.31 168.664 296.574 169.444 296.574 170.404C296.574 171.376 296.31 172.162 295.782 172.762C295.266 173.362 294.576 173.662 293.712 173.662ZM293.712 172.348C294.144 172.348 294.48 172.174 294.72 171.826C294.972 171.478 295.098 171.004 295.098 170.404C295.098 169.816 294.972 169.348 294.72 169C294.468 168.652 294.132 168.478 293.712 168.478C293.28 168.478 292.938 168.652 292.686 169C292.446 169.348 292.32 169.816 292.308 170.404C292.32 171.004 292.446 171.478 292.686 171.826C292.926 172.174 293.268 172.348 293.712 172.348ZM294.846 179.872H293.01L300.138 167.272H301.992L294.846 179.872ZM301.452 179.962C300.588 179.962 299.892 179.662 299.364 179.062C298.836 178.462 298.572 177.676 298.572 176.704C298.572 175.744 298.836 174.964 299.364 174.364C299.892 173.764 300.588 173.464 301.452 173.464C302.304 173.464 302.994 173.764 303.522 174.364C304.05 174.964 304.314 175.744 304.314 176.704C304.314 177.676 304.05 178.462 303.522 179.062C303.006 179.662 302.316 179.962 301.452 179.962ZM301.452 178.648C301.884 178.648 302.22 178.474 302.46 178.126C302.712 177.778 302.838 177.304 302.838 176.704C302.838 176.116 302.712 175.648 302.46 175.3C302.208 174.952 301.872 174.778 301.452 174.778C301.02 174.778 300.678 174.952 300.426 175.3C300.186 175.648 300.06 176.116 300.048 176.704C300.06 177.304 300.186 177.778 300.426 178.126C300.666 178.474 301.008 178.648 301.452 178.648Z" fill="#848484"></path><path d="M214.585 90.47C214.179 89.2152 213.562 88.0402 212.761 86.9965C211.807 79.8225 208.08 67.6224 203.824 59.7855C198.783 50.5802 192.503 47.6222 187.857 46.9963L187.572 46.8428L187.438 46.7876L187.219 46.7017L186.994 46.6219L186.799 46.5605C186.696 46.5237 186.581 46.493 186.465 46.4623L186.313 46.4194L185.857 46.3028H185.784C183.68 45.7873 180.507 45.2779 177.4 44.4249C176.901 44.2899 176.409 44.1487 175.916 43.9953C177.089 42.9455 178.074 41.7 178.828 40.3132C175.6 41.3626 173.964 37.4472 173.496 35.1459C172.542 30.6169 174.639 25.4619 174.84 20.5094C175.259 10.9174 171.551 6.33931 169.119 4.40006C168.894 4.20367 168.663 4.01957 168.413 3.8416C166.072 1.92689 162.868 0.877476 158.436 1.00635C157.7 0.984818 156.964 1.02588 156.235 1.12909C152.49 1.27637 149.674 2.26441 147.546 3.90297C145.206 5.48628 140.682 9.97236 141.144 20.5094C141.363 25.4803 143.448 30.6353 142.506 35.1889C142.026 37.4902 140.396 41.4055 137.168 40.3561C137.926 41.7402 138.911 42.9851 140.08 44.0383C139.594 44.1917 139.101 44.3328 138.603 44.4678C135.496 45.3209 132.316 45.8302 130.218 46.3457H130.139L129.683 46.4623L129.531 46.5053L129.203 46.6035L129.008 46.6649C128.932 46.6868 128.857 46.7134 128.783 46.7446L128.558 46.8306L128.431 46.8981L128.151 47.0515C123.506 47.6652 117.207 50.6538 112.179 59.8408C107.923 67.653 104.183 79.8532 103.259 87.0518C102.445 88.0918 101.818 89.2673 101.405 90.5253C97.8843 100.835 98.5288 109.814 101.405 120.891C101.812 122.449 101.459 124.027 101.648 125.328C101.645 125.352 101.645 125.377 101.648 125.401C101.648 125.401 101.648 125.438 101.648 125.456C101.648 129.642 101.599 133.434 102.183 136.411C103.733 144.235 110.811 149.354 111.911 148.347C113.012 147.341 112.172 145.377 110.896 142.572C109.284 139.044 110.105 137.049 110.288 135.478C110.296 135.402 110.327 135.331 110.377 135.275C110.427 135.218 110.493 135.178 110.566 135.16C110.64 135.143 110.716 135.149 110.786 135.177C110.856 135.205 110.916 135.255 110.956 135.318C111.364 135.963 111.789 136.669 112.355 139.7C112.701 141.541 113.899 141.253 113.954 141.099C114.44 139.774 114.41 138.645 114.288 136.742C113.845 129.654 113.218 128.592 110.987 126.211C110.776 125.585 110.497 124.983 110.154 124.419C112.373 111.164 114.678 104.315 115.261 95.5759C115.315 95.5174 115.366 95.4559 115.413 95.3918C117.895 91.9022 120.159 88.2601 122.192 84.4865C124.016 87.3341 119.937 90.5498 119.937 98.4541V104.683C119.937 105.119 118.848 107.414 116.672 113.803C116.544 114.177 116.422 114.551 116.313 114.919C116.27 115.054 116.234 115.183 116.198 115.312C116.125 115.545 116.058 115.779 115.997 116.006L115.869 116.484C115.821 116.675 115.772 116.859 115.729 117.049C115.687 117.239 115.644 117.399 115.608 117.571L115.498 118.049L115.389 118.608C115.389 118.743 115.34 118.878 115.31 119.013C115.279 119.148 115.243 119.412 115.213 119.626L115.158 119.952L115.067 120.565C115.067 120.633 115.067 120.707 115.067 120.774C114.856 122.463 114.76 124.165 114.781 125.868C112.665 145.868 124.509 169.114 126.631 173.324C129.78 179.676 131.781 184.72 132 186.997C132.364 190.753 129.762 204.665 130.68 212.6C131.957 223.647 138.913 240.026 141.089 249.495C141.576 251.606 142.707 254.466 142.47 256.381C142.05 259.818 139.959 262.328 139.582 264.359C138.974 267.427 148.343 268.685 150.368 268.833C151.584 268.925 154.387 269.637 155.84 268.403V262.88C155.24 261.143 154.832 259.344 154.624 257.516C154.277 253.497 153.693 249.618 153.59 247.63C153.128 239.142 156.241 221.499 156.74 208.832C157.123 198.983 155.365 193.226 155.043 188.028C154.776 183.732 155.365 180.664 156.077 173.435C157.354 160.547 157.968 148.212 158.047 138.835C158.126 148.212 158.74 160.547 160.017 173.435C160.734 180.67 161.318 183.757 161.056 188.028C160.734 193.226 158.971 198.983 159.36 208.832C159.859 221.499 162.966 239.142 162.503 247.63C162.4 249.618 161.816 253.497 161.47 257.516C161.261 259.344 160.854 261.143 160.254 262.88V268.403C161.677 269.631 164.467 268.925 165.726 268.833C167.751 268.685 177.09 267.452 176.512 264.359C176.135 262.34 174.043 259.83 173.624 256.381C173.393 254.466 174.518 251.606 175.004 249.495C177.187 240.026 184.124 223.659 185.413 212.6C186.331 204.665 183.735 190.753 184.094 186.997C184.313 184.72 186.319 179.676 189.469 173.324C191.56 169.114 203.453 145.868 201.313 125.868C201.333 124.165 201.238 122.463 201.027 120.774C201.027 120.707 201.027 120.633 201.027 120.565L200.936 119.952C200.936 119.841 200.905 119.737 200.887 119.626C200.869 119.516 200.82 119.24 200.784 119.013C200.747 118.786 200.735 118.743 200.705 118.608L200.595 118.049L200.486 117.571C200.449 117.399 200.413 117.221 200.37 117.049L200.224 116.484C200.182 116.325 200.145 116.165 200.097 116.006C200.048 115.846 199.969 115.545 199.902 115.312C199.859 115.183 199.829 115.054 199.787 114.919C199.671 114.551 199.556 114.177 199.422 113.803C197.245 107.414 196.157 105.119 196.157 104.683V98.3989C196.157 90.4946 192.089 87.2788 193.901 84.4313C195.934 88.2062 198.201 91.8485 200.686 95.3366C200.735 95.4041 200.784 95.4593 200.832 95.5207C201.44 104.284 203.726 111.133 205.946 124.364C205.601 124.927 205.321 125.528 205.113 126.156C202.875 128.537 202.249 129.599 201.805 136.687C201.69 138.596 201.653 139.719 202.146 141.044C202.2 141.198 203.362 141.486 203.739 139.645C204.31 136.613 204.736 135.908 205.137 135.263C205.178 135.199 205.237 135.15 205.307 135.122C205.377 135.093 205.454 135.088 205.527 135.105C205.6 135.122 205.667 135.162 205.716 135.219C205.766 135.276 205.798 135.347 205.806 135.423C205.976 136.969 206.791 138.988 205.198 142.517C203.921 145.322 203.094 147.279 204.176 148.292C205.259 149.304 212.336 144.18 213.905 136.356C214.513 133.385 214.415 129.605 214.44 125.401C214.442 125.383 214.442 125.364 214.44 125.346V125.272C214.622 123.971 214.269 122.394 214.677 120.835C217.461 109.783 218.106 100.805 214.585 90.47Z" fill="url(#paint0_linear_111_17)"></path><path d="M142.326 29.1776C142.497 28.9974 142.49 28.7126 142.31 28.5415L139.373 25.7529C139.193 25.5817 138.908 25.5891 138.737 25.7694C138.565 25.9496 138.573 26.2344 138.753 26.4056L141.364 28.8843L138.885 31.495C138.714 31.6752 138.721 31.9601 138.902 32.1312C139.082 32.3023 139.367 32.2949 139.538 32.1147L142.326 29.1776ZM172.695 28.5373C172.512 28.706 172.501 28.9907 172.67 29.1732L175.418 32.1475C175.587 32.33 175.872 32.3413 176.054 32.1726C176.237 32.0039 176.248 31.7192 176.079 31.5367L173.636 28.8928L176.28 26.4494C176.462 26.2808 176.473 25.9961 176.305 25.8135C176.136 25.631 175.851 25.6198 175.669 25.7885L172.695 28.5373ZM141.988 28.4179C123.616 28.8944 108.829 30.6273 98.6239 33.1793C93.5246 34.4544 89.5414 35.9406 86.8223 37.5942C84.1236 39.2354 82.55 41.1189 82.55 43.2216H83.45C83.45 41.61 84.6625 39.961 87.29 38.3631C89.8972 36.7776 93.7805 35.3182 98.8422 34.0524C108.959 31.5227 123.672 29.7932 142.012 29.3176L141.988 28.4179ZM82.55 43.2216C82.55 44.4004 83.1636 45.4973 84.2131 46.4988C85.2624 47.5 86.7853 48.4444 88.7055 49.3309C92.5484 51.1051 98.0808 52.6915 104.882 54.0195C118.49 56.6771 137.271 58.3178 158.003 58.3178V57.4178C137.311 57.4178 118.591 55.7796 105.054 53.1362C98.282 51.8138 92.8304 50.2441 89.0827 48.5138C87.2076 47.6481 85.7834 46.7532 84.8345 45.8476C83.8858 44.9423 83.45 44.065 83.45 43.2216H82.55ZM158.003 58.3178C178.734 58.3178 197.513 56.6771 211.121 54.0195C217.921 52.6915 223.453 51.1051 227.295 49.3309C229.215 48.4444 230.738 47.5 231.787 46.4987C232.836 45.4972 233.45 44.4004 233.45 43.2216H232.55C232.55 44.065 232.114 44.9424 231.166 45.8477C230.217 46.7532 228.793 47.6481 226.918 48.5138C223.171 50.2441 217.72 51.8138 210.949 53.1362C197.413 55.7796 178.694 57.4178 158.003 57.4178V58.3178ZM233.45 43.2216C233.45 42.1891 232.98 41.2176 232.16 40.3202C231.342 39.4253 230.155 38.5788 228.656 37.7794C225.659 36.1801 221.329 34.7234 215.956 33.4533C205.202 30.9112 190.171 29.0939 173.018 28.4181L172.982 29.3174C190.101 29.9918 205.07 31.805 215.748 34.3291C221.091 35.5921 225.335 37.0274 228.233 38.5734C229.682 39.3467 230.772 40.1361 231.495 40.9274C232.216 41.7161 232.55 42.4809 232.55 43.2216H233.45Z" fill="#848484"></path><path d="M190.709 73.5241C190.52 73.6846 190.496 73.9685 190.656 74.1583L193.272 77.2506C193.432 77.4403 193.716 77.4641 193.906 77.3036C194.096 77.1431 194.119 76.8592 193.959 76.6694L191.634 73.9207L194.383 71.5959C194.573 71.4354 194.596 71.1515 194.436 70.9617C194.275 70.772 193.991 70.7482 193.802 70.9087L190.709 73.5241ZM124.339 74.1639C124.502 73.9768 124.483 73.6925 124.296 73.5289L121.247 70.8632C121.06 70.6996 120.776 70.7187 120.612 70.9058C120.449 71.0929 120.468 71.3772 120.655 71.5407L123.365 73.9103L120.996 76.6205C120.832 76.8076 120.851 77.0919 121.038 77.2555C121.225 77.4191 121.509 77.4 121.673 77.2129L124.339 74.1639ZM190.963 74.3161C204.512 75.4484 214.971 77.3561 222.03 79.7522C225.561 80.951 228.214 82.263 229.976 83.6411C231.739 85.0211 232.55 86.4178 232.55 87.7914H233.45C233.45 86.0267 232.402 84.3973 230.53 82.9324C228.656 81.4657 225.896 80.1141 222.319 78.8999C215.161 76.4701 204.619 74.5542 191.037 73.4192L190.963 74.3161ZM232.55 87.7914C232.55 88.6694 232.109 89.577 231.161 90.5087C230.212 91.4412 228.787 92.3624 226.913 93.2532C223.166 95.0339 217.715 96.6496 210.944 98.0108C197.409 100.732 178.691 102.418 158.003 102.418V103.318C178.732 103.318 197.512 101.629 211.122 98.8931C217.922 97.5259 223.455 95.8928 227.299 94.0661C229.22 93.1533 230.743 92.181 231.792 91.1507C232.841 90.1196 233.45 88.995 233.45 87.7914H232.55ZM158.003 102.418C137.314 102.418 118.595 100.732 105.058 98.0108C98.2865 96.6495 92.8353 95.0339 89.088 93.2532C87.2132 92.3623 85.7888 91.4412 84.8393 90.5087C83.8907 89.577 83.45 88.6693 83.45 87.7914H82.55C82.55 88.995 83.1588 90.1197 84.2087 91.1508C85.2577 92.181 86.7807 93.1533 88.7017 94.0661C92.5458 95.8928 98.0795 97.5259 104.881 98.8931C118.492 101.629 137.273 103.318 158.003 103.318V102.418ZM83.45 87.7914C83.45 84.7746 85.983 81.8958 92.4833 79.5058C98.9481 77.129 109.147 75.3149 124.03 74.3167L123.97 73.4187C109.061 74.4186 98.76 76.2393 92.1728 78.6611C85.6211 81.0699 82.55 84.1538 82.55 87.7914H83.45Z" fill="#848484"></path><path d="M194.712 118.522C194.521 118.681 194.495 118.965 194.655 119.156L197.25 122.265C197.409 122.456 197.693 122.482 197.883 122.322C198.074 122.163 198.1 121.879 197.941 121.689L195.634 118.925L198.398 116.618C198.588 116.459 198.614 116.175 198.455 115.984C198.296 115.793 198.012 115.768 197.821 115.927L194.712 118.522ZM120.34 119.162C120.503 118.974 120.482 118.69 120.295 118.527L117.232 115.877C117.045 115.714 116.76 115.735 116.598 115.922C116.435 116.11 116.455 116.395 116.643 116.557L119.365 118.913L117.009 121.635C116.846 121.823 116.867 122.107 117.055 122.27C117.243 122.433 117.527 122.412 117.69 122.224L120.34 119.162ZM194.96 119.316C207.836 120.476 217.291 122.327 223.514 124.611C226.627 125.753 228.903 126.994 230.393 128.29C231.88 129.582 232.55 130.895 232.55 132.201H233.45C233.45 130.551 232.593 129.009 230.983 127.61C229.377 126.214 226.988 124.927 223.824 123.766C217.493 121.442 207.947 119.583 195.04 118.419L194.96 119.316ZM232.55 132.201C232.55 133.046 232.114 133.925 231.165 134.831C230.216 135.738 228.792 136.634 226.917 137.501C223.17 139.234 217.718 140.806 210.946 142.13C197.41 144.777 178.691 146.418 158.003 146.418V147.318C178.731 147.318 197.511 145.675 211.119 143.013C217.92 141.683 223.452 140.095 227.295 138.318C229.215 137.43 230.738 136.485 231.787 135.482C232.837 134.479 233.45 133.381 233.45 132.201H232.55ZM158.003 146.418C137.314 146.418 118.593 144.777 105.056 142.13C98.2837 140.806 92.8317 139.234 89.0836 137.501C87.2083 136.634 85.784 135.738 84.8349 134.831C83.886 133.925 83.45 133.046 83.45 132.201H82.55C82.55 133.381 83.1635 134.479 84.2131 135.482C85.2625 136.485 86.7856 137.43 88.706 138.318C92.5494 140.095 98.0823 141.683 104.883 143.013C118.493 145.675 137.274 147.318 158.003 147.318V146.418ZM83.45 132.201C83.45 130.733 83.9313 129.345 85.0903 128.041C86.2589 126.727 88.13 125.484 90.9288 124.356C96.5311 122.097 105.723 120.347 120.032 119.317L119.968 118.419C105.638 119.451 96.3303 121.208 90.5923 123.521C87.7209 124.679 85.7118 125.988 84.4176 127.443C83.1139 128.91 82.55 130.51 82.55 132.201H83.45Z" fill="#848484"></path><path d="M177.202 161.53C177.016 161.695 176.998 161.979 177.163 162.166L179.846 165.199C180.011 165.385 180.296 165.403 180.482 165.238C180.668 165.073 180.685 164.789 180.521 164.603L178.135 161.906L180.832 159.521C181.018 159.356 181.035 159.072 180.87 158.886C180.706 158.7 180.421 158.682 180.235 158.847L177.202 161.53ZM137.832 162.171C138 161.987 137.987 161.702 137.803 161.535L134.811 158.806C134.627 158.638 134.343 158.651 134.175 158.835C134.008 159.018 134.021 159.303 134.205 159.471L136.864 161.897L134.438 164.556C134.271 164.74 134.284 165.025 134.467 165.192C134.651 165.36 134.936 165.347 135.103 165.163L137.832 162.171ZM177.473 162.317C192.754 163.252 206.6 165.175 216.614 167.683C221.625 168.938 225.653 170.334 228.419 171.813C229.802 172.552 230.847 173.302 231.541 174.047C232.234 174.79 232.55 175.499 232.55 176.174H233.45C233.45 175.198 232.988 174.28 232.199 173.433C231.412 172.588 230.273 171.784 228.843 171.019C225.983 169.489 221.873 168.072 216.833 166.81C206.747 164.284 192.843 162.356 177.527 161.418L177.473 162.317ZM232.55 176.174C232.55 177.021 232.114 177.902 231.165 178.81C230.216 179.718 228.792 180.616 226.917 181.485C223.169 183.221 217.718 184.795 210.946 186.122C197.41 188.774 178.691 190.417 158.003 190.417V191.317C178.731 191.317 197.511 189.671 211.119 187.005C217.92 185.673 223.452 184.081 227.295 182.301C229.215 181.412 230.738 180.465 231.787 179.46C232.837 178.455 233.45 177.355 233.45 176.174H232.55ZM158.003 190.417C137.314 190.417 118.593 188.774 105.056 186.122C98.2839 184.795 92.832 183.221 89.0839 181.485C87.2086 180.616 85.7843 179.718 84.8352 178.81C83.8864 177.902 83.45 177.021 83.45 176.174H82.55C82.55 177.355 83.1632 178.455 84.2128 179.46C85.2622 180.465 86.7853 181.412 88.7057 182.301C92.5492 184.081 98.0821 185.673 104.883 187.005C118.493 189.671 137.274 191.317 158.003 191.317V190.417ZM83.45 176.174C83.45 174.682 84.601 173.13 87.0903 171.6C89.5563 170.085 93.2134 168.67 97.9363 167.417C107.375 164.912 120.965 163.078 137.521 162.317L137.479 161.418C120.891 162.18 107.23 164.019 97.7055 166.547C92.9464 167.81 89.1931 169.252 86.6191 170.833C84.0685 172.4 82.55 174.186 82.55 176.174H83.45Z" fill="#848484"></path><g style="mix-blend-mode:multiply"><path d="M191.586 95.6721C190.807 87.287 189.966 78.5889 190.224 69.6084C190.421 63.9729 189.532 58.3521 187.604 53.0531C186.291 49.37 184.082 47.4733 181.916 47.2093C180.432 46.8717 178.345 46.5955 176.118 46.1474L173.756 45.6195L172.707 45.3923H172.627C174.602 44.1741 176.197 42.426 177.229 40.3466C174.161 41.3962 172.645 37.4799 172.198 35.178C171.29 30.6295 173.259 25.4732 173.492 20.5195C173.705 17.2238 173.289 13.9176 172.265 10.7778C171.388 7.82524 169.915 5.48037 167.639 3.84141C165.277 1.92623 162.037 0.882695 157.564 1.00546C153.098 0.882695 149.858 1.92623 147.496 3.84141C145.997 4.99892 144.81 6.51148 144.041 8.24266C142.6 10.9006 141.452 14.823 141.692 20.5195C141.894 25.4916 143.864 30.6479 142.974 35.2026C142.489 37.4861 140.974 41.3901 137.906 40.3527C138.934 42.433 140.526 44.1817 142.501 45.3985H142.422L141.373 45.6256L139.01 46.1535C136.783 46.5771 134.715 46.8778 133.218 47.2155C131.053 47.4794 128.844 49.37 127.525 53.0592C125.596 58.3625 124.705 63.987 124.899 69.6268C125.162 78.6073 124.285 87.2993 123.543 95.6844C121.42 102.437 120.677 108.489 121.125 127.07C121.168 128.678 121.076 130.207 121.223 131.514C121.22 131.555 121.22 131.596 121.223 131.637C121.223 131.766 121.223 131.901 121.223 132.036C121.837 136.18 121.272 138.874 122.266 141.735C124.954 149.463 134.39 159.008 129.114 146.768C127.181 142.281 127.66 140.47 127.445 138.574C135.059 152.189 132.286 141.029 127.236 131.25C126.788 125.566 132.028 108.256 132.494 98.2625C132.586 97.9426 132.653 97.6164 132.697 97.2865C133.409 91.854 135.077 78.2574 136.538 69.0498C137.151 73.494 139.477 75.6425 139.98 76.7474C143.772 109.563 136.507 99.257 134.016 120.729C131.623 141.348 140.152 165.159 140.906 172.783C141.52 178.829 142.176 183.12 141.698 187.81C141.042 193.591 140.743 199.407 140.802 205.224C140.955 216.359 146.287 240.44 146.158 250.164C146.158 251.201 146.048 255.302 145.815 257.211C145.391 260.654 145.017 262.999 144.637 265.019C144.054 268.088 147.704 268.702 149.754 268.831C151.435 268.953 156.024 270.23 156.129 266.228C156.165 264.828 154.386 261.397 154.042 257.493C153.693 253.472 153.104 249.593 152.999 247.61C152.533 239.121 155.668 221.473 156.171 208.797C156.564 198.976 154.791 193.187 154.46 187.988C154.196 183.691 155.797 180.658 155.509 173.391C154.993 160.359 156.178 145.387 156.895 134.762L157.509 134.811H157.564L158.178 134.762C158.89 145.387 160.074 160.359 159.558 173.391C159.27 180.658 160.877 183.715 160.608 187.988C160.282 193.187 158.503 198.951 158.896 208.797C159.399 221.473 162.534 239.121 162.074 247.61C161.963 249.593 161.374 253.472 161.025 257.493C160.681 261.397 158.908 264.828 158.945 266.228C159.043 270.23 163.632 268.953 165.32 268.831C167.357 268.677 171.02 268.112 170.437 265.019C170.05 262.999 169.676 260.654 169.253 257.211C169.019 255.302 168.927 251.201 168.915 250.164C168.78 240.44 174.112 216.359 174.265 205.224C174.328 199.407 174.029 193.59 173.369 187.81C172.891 183.12 173.572 178.829 174.161 172.783C174.928 164.956 183.462 141.477 181.057 120.729C178.738 100.638 171.363 109.066 175.1 76.7474C175.554 75.753 177.922 73.4142 178.536 69.0498C179.996 78.2574 181.671 91.8417 182.376 97.2865C182.422 97.6165 182.492 97.9427 182.585 98.2625C183.076 108.833 186.07 115.07 187.727 128.592C187.852 129.472 187.889 130.363 187.837 131.25C186.96 132.945 185.414 133.362 184.156 139.556C183.775 141.428 183.364 143.239 183.125 144.884C183.125 145.05 184.315 145.498 184.91 143.724C186.352 139.427 186.8 140.041 187.629 138.574C187.42 140.47 187.898 142.257 185.96 146.768C184.733 149.604 183.205 151.194 184.15 152.348C185.095 153.502 190.187 149.279 192.807 141.735C193.801 138.874 193.255 136.18 193.85 132.036C193.85 131.901 193.85 131.766 193.85 131.637C193.85 131.508 193.85 131.557 193.85 131.514C193.991 130.207 193.905 128.678 193.942 127.07C194.445 108.477 193.703 102.394 191.586 95.6721Z" fill="url(#paint1_linear_111_17)"></path></g><path d="M19.1581 91.8723H17.0301L14.8601 82.0723H16.9461L18.2761 88.7223L20.1941 82.0723H22.0981L24.0021 88.6943L25.3321 82.0723H27.3481L25.1781 91.8723H23.0501L21.1041 85.0263L19.1581 91.8723ZM30.2086 91.9983C29.4246 91.9983 28.7852 91.793 28.2906 91.3823C27.7959 90.9623 27.5486 90.421 27.5486 89.7583C27.5486 89.0676 27.8146 88.5263 28.3466 88.1343C28.8786 87.7423 29.6112 87.5463 30.5446 87.5463C30.8432 87.5463 31.1419 87.5696 31.4406 87.6163C31.7392 87.663 32.0332 87.733 32.3226 87.8263V87.3083C32.3226 86.8883 32.1919 86.571 31.9306 86.3563C31.6692 86.1416 31.2866 86.0343 30.7826 86.0343C30.4746 86.0343 30.1386 86.0856 29.7746 86.1883C29.4199 86.2816 29.0139 86.431 28.5566 86.6363L27.8566 85.2223C28.4259 84.961 28.9766 84.765 29.5086 84.6343C30.0499 84.5036 30.5819 84.4383 31.1046 84.4383C32.0846 84.4383 32.8452 84.6763 33.3866 85.1523C33.9372 85.619 34.2126 86.2816 34.2126 87.1403V91.8723H32.3226V91.3683C32.0146 91.583 31.6879 91.7416 31.3426 91.8443C31.0066 91.947 30.6286 91.9983 30.2086 91.9983ZM29.3826 89.7163C29.3826 89.9963 29.5039 90.2203 29.7466 90.3883C29.9892 90.547 30.3112 90.6263 30.7126 90.6263C31.0299 90.6263 31.3192 90.589 31.5806 90.5143C31.8512 90.4303 32.0986 90.3136 32.3226 90.1643V89.0723C32.0892 88.979 31.8419 88.9136 31.5806 88.8763C31.3286 88.8296 31.0626 88.8063 30.7826 88.8063C30.3439 88.8063 29.9986 88.8903 29.7466 89.0583C29.5039 89.217 29.3826 89.4363 29.3826 89.7163ZM36.6162 83.7103C36.3175 83.7103 36.0609 83.603 35.8462 83.3883C35.6315 83.1736 35.5242 82.917 35.5242 82.6183C35.5242 82.3196 35.6315 82.063 35.8462 81.8483C36.0609 81.6336 36.3175 81.5263 36.6162 81.5263C36.9149 81.5263 37.1715 81.6336 37.3862 81.8483C37.6009 82.063 37.7082 82.3196 37.7082 82.6183C37.7082 82.917 37.6009 83.1736 37.3862 83.3883C37.1715 83.603 36.9149 83.7103 36.6162 83.7103ZM37.5822 84.5783V91.8723H35.6642V84.5783H37.5822ZM38.4662 91.0043L39.4182 89.7303C39.8475 90.0103 40.2535 90.2203 40.6362 90.3603C41.0188 90.491 41.4015 90.5563 41.7842 90.5563C42.2135 90.5563 42.5542 90.4863 42.8062 90.3463C43.0675 90.2063 43.1982 90.0196 43.1982 89.7863C43.1982 89.5996 43.1235 89.4503 42.9742 89.3383C42.8342 89.2263 42.6055 89.147 42.2882 89.1003L40.8882 88.8903C40.1695 88.7783 39.6188 88.545 39.2362 88.1903C38.8628 87.8356 38.6762 87.3643 38.6762 86.7763C38.6762 86.0763 38.9515 85.5163 39.5022 85.0963C40.0528 84.6763 40.7902 84.4663 41.7142 84.4663C42.2462 84.4663 42.7642 84.5456 43.2682 84.7043C43.7722 84.8536 44.2528 85.0776 44.7102 85.3763L43.7862 86.6083C43.3848 86.375 43.0022 86.2023 42.6382 86.0903C42.2742 85.969 41.9055 85.9083 41.5322 85.9083C41.1868 85.9083 40.9068 85.9736 40.6922 86.1043C40.4868 86.235 40.3842 86.4076 40.3842 86.6223C40.3842 86.8183 40.4588 86.9723 40.6082 87.0843C40.7668 87.187 41.0235 87.2616 41.3782 87.3083L42.7782 87.5183C43.4875 87.621 44.0335 87.8543 44.4162 88.2183C44.8082 88.5823 45.0042 89.0443 45.0042 89.6043C45.0042 89.9496 44.9202 90.2716 44.7522 90.5703C44.5935 90.8596 44.3742 91.1116 44.0942 91.3263C43.8142 91.541 43.4782 91.709 43.0862 91.8303C42.6942 91.9516 42.2695 92.0123 41.8122 92.0123C41.1495 92.0123 40.5288 91.9283 39.9502 91.7603C39.3715 91.583 38.8768 91.331 38.4662 91.0043ZM46.8164 89.8143V86.1883H45.3184V84.5783H46.8164V82.7163L48.7344 82.2823V84.5783H50.8064V86.1883H48.7344V89.4223C48.7344 89.7676 48.8091 90.0103 48.9584 90.1503C49.1077 90.2903 49.3691 90.3603 49.7424 90.3603C49.9197 90.3603 50.0877 90.351 50.2464 90.3323C50.4051 90.3043 50.5777 90.2576 50.7644 90.1923V91.7603C50.5591 91.8256 50.3117 91.877 50.0224 91.9143C49.7331 91.961 49.4857 91.9843 49.2804 91.9843C48.4684 91.9843 47.8524 91.8023 47.4324 91.4383C47.0217 91.065 46.8164 90.5236 46.8164 89.8143Z" fill="#848484"></path><path d="M0.638719 127.864V126.072H9.26272V127.864H5.97272V135.872H3.94272V127.864H0.638719ZM10.2755 135.872V126.072L12.1935 125.652V129.152C12.4735 128.919 12.7815 128.742 13.1175 128.62C13.4629 128.499 13.8362 128.438 14.2375 128.438C15.0775 128.438 15.7682 128.709 16.3095 129.25C16.8509 129.792 17.1215 130.487 17.1215 131.336V135.872H15.2035V131.616C15.2035 131.159 15.0635 130.79 14.7835 130.51C14.5129 130.23 14.1489 130.09 13.6915 130.09C13.3742 130.09 13.0849 130.156 12.8235 130.286C12.5715 130.408 12.3615 130.585 12.1935 130.818V135.872H10.2755ZM19.5264 127.71C19.2277 127.71 18.971 127.603 18.7564 127.388C18.5417 127.174 18.4344 126.917 18.4344 126.618C18.4344 126.32 18.5417 126.063 18.7564 125.848C18.971 125.634 19.2277 125.526 19.5264 125.526C19.825 125.526 20.0817 125.634 20.2964 125.848C20.511 126.063 20.6184 126.32 20.6184 126.618C20.6184 126.917 20.511 127.174 20.2964 127.388C20.0817 127.603 19.825 127.71 19.5264 127.71ZM20.4924 128.578V135.872H18.5744V128.578H20.4924ZM25.3523 135.914C24.839 135.914 24.3537 135.816 23.8963 135.62C23.4483 135.424 23.0563 135.158 22.7203 134.822C22.3937 134.486 22.1323 134.094 21.9363 133.646C21.7497 133.189 21.6563 132.699 21.6563 132.176C21.6563 131.663 21.7543 131.182 21.9503 130.734C22.1463 130.277 22.4123 129.88 22.7483 129.544C23.0843 129.208 23.481 128.947 23.9383 128.76C24.3957 128.564 24.8857 128.466 25.4083 128.466C25.7723 128.466 26.1177 128.518 26.4443 128.62C26.7803 128.723 27.093 128.868 27.3823 129.054V128.578H29.2723V135.872C29.2723 136.834 28.9597 137.576 28.3343 138.098C27.7183 138.621 26.827 138.882 25.6603 138.882C25.1003 138.882 24.559 138.826 24.0363 138.714C23.523 138.602 23.0517 138.439 22.6223 138.224L23.2943 136.726C23.6957 136.922 24.0877 137.067 24.4703 137.16C24.853 137.263 25.2357 137.314 25.6183 137.314C26.1877 137.314 26.617 137.188 26.9063 136.936C27.205 136.694 27.3543 136.334 27.3543 135.858V135.256C27.065 135.471 26.7477 135.634 26.4023 135.746C26.0663 135.858 25.7163 135.914 25.3523 135.914ZM23.5463 132.176C23.5463 132.764 23.747 133.264 24.1483 133.674C24.559 134.085 25.0583 134.29 25.6463 134.29C25.9917 134.29 26.309 134.234 26.5983 134.122C26.8877 134.001 27.1397 133.838 27.3543 133.632V130.762C27.149 130.557 26.897 130.398 26.5983 130.286C26.2997 130.165 25.987 130.104 25.6603 130.104C25.0723 130.104 24.573 130.305 24.1623 130.706C23.7517 131.108 23.5463 131.598 23.5463 132.176ZM30.7833 135.872V126.072L32.7013 125.652V129.152C32.9813 128.919 33.2893 128.742 33.6253 128.62C33.9707 128.499 34.344 128.438 34.7453 128.438C35.5853 128.438 36.276 128.709 36.8173 129.25C37.3587 129.792 37.6293 130.487 37.6293 131.336V135.872H35.7113V131.616C35.7113 131.159 35.5713 130.79 35.2913 130.51C35.0207 130.23 34.6567 130.09 34.1993 130.09C33.882 130.09 33.5927 130.156 33.3313 130.286C33.0793 130.408 32.8693 130.585 32.7013 130.818V135.872H30.7833ZM39.8027 133.814V130.188H38.3047V128.578H39.8027V126.716L41.7207 126.282V128.578H43.7927V130.188H41.7207V133.422C41.7207 133.768 41.7954 134.01 41.9447 134.15C42.0941 134.29 42.3554 134.36 42.7287 134.36C42.9061 134.36 43.0741 134.351 43.2327 134.332C43.3914 134.304 43.5641 134.258 43.7507 134.192V135.76C43.5454 135.826 43.2981 135.877 43.0087 135.914C42.7194 135.961 42.4721 135.984 42.2667 135.984C41.4547 135.984 40.8387 135.802 40.4187 135.438C40.0081 135.065 39.8027 134.524 39.8027 133.814ZM44.263 135.004L45.215 133.73C45.6444 134.01 46.0504 134.22 46.433 134.36C46.8157 134.491 47.1984 134.556 47.581 134.556C48.0104 134.556 48.351 134.486 48.603 134.346C48.8644 134.206 48.995 134.02 48.995 133.786C48.995 133.6 48.9204 133.45 48.771 133.338C48.631 133.226 48.4024 133.147 48.085 133.1L46.685 132.89C45.9664 132.778 45.4157 132.545 45.033 132.19C44.6597 131.836 44.473 131.364 44.473 130.776C44.473 130.076 44.7484 129.516 45.299 129.096C45.8497 128.676 46.587 128.466 47.511 128.466C48.043 128.466 48.561 128.546 49.065 128.704C49.569 128.854 50.0497 129.078 50.507 129.376L49.583 130.608C49.1817 130.375 48.799 130.202 48.435 130.09C48.071 129.969 47.7024 129.908 47.329 129.908C46.9837 129.908 46.7037 129.974 46.489 130.104C46.2837 130.235 46.181 130.408 46.181 130.622C46.181 130.818 46.2557 130.972 46.405 131.084C46.5637 131.187 46.8204 131.262 47.175 131.308L48.575 131.518C49.2844 131.621 49.8304 131.854 50.213 132.218C50.605 132.582 50.801 133.044 50.801 133.604C50.801 133.95 50.717 134.272 50.549 134.57C50.3904 134.86 50.171 135.112 49.891 135.326C49.611 135.541 49.275 135.709 48.883 135.83C48.491 135.952 48.0664 136.012 47.609 136.012C46.9464 136.012 46.3257 135.928 45.747 135.76C45.1684 135.583 44.6737 135.331 44.263 135.004Z" fill="#848484"></path><path d="M19.4797 180.872V171.072H21.5097V179.08H26.8717V180.872H19.4797ZM34.3682 179.962C33.9202 180.326 33.4582 180.592 32.9822 180.76C32.5156 180.928 31.9929 181.012 31.4142 181.012C30.8636 181.012 30.3456 180.914 29.8602 180.718C29.3842 180.522 28.9689 180.256 28.6142 179.92C28.2689 179.584 27.9936 179.188 27.7882 178.73C27.5922 178.264 27.4942 177.764 27.4942 177.232C27.4942 176.71 27.5876 176.22 27.7742 175.762C27.9702 175.296 28.2362 174.894 28.5722 174.558C28.9082 174.213 29.3049 173.942 29.7622 173.746C30.2289 173.55 30.7236 173.452 31.2462 173.452C31.7596 173.452 32.2356 173.555 32.6742 173.76C33.1222 173.956 33.5049 174.227 33.8222 174.572C34.1489 174.918 34.4009 175.333 34.5782 175.818C34.7649 176.294 34.8582 176.812 34.8582 177.372V177.876H29.4262C29.5569 178.334 29.8089 178.702 30.1822 178.982C30.5556 179.262 30.9942 179.402 31.4982 179.402C31.8156 179.402 32.1142 179.351 32.3942 179.248C32.6742 179.146 32.9122 179.001 33.1082 178.814L34.3682 179.962ZM31.2042 175.034C30.7656 175.034 30.3876 175.17 30.0702 175.44C29.7529 175.702 29.5336 176.056 29.4122 176.504H32.9822C32.8609 176.075 32.6369 175.725 32.3102 175.454C31.9929 175.174 31.6242 175.034 31.2042 175.034ZM39.448 180.914C38.9347 180.914 38.4494 180.816 37.992 180.62C37.544 180.424 37.152 180.158 36.816 179.822C36.4894 179.486 36.228 179.094 36.032 178.646C35.8454 178.189 35.752 177.699 35.752 177.176C35.752 176.663 35.85 176.182 36.046 175.734C36.242 175.277 36.508 174.88 36.844 174.544C37.18 174.208 37.5767 173.947 38.034 173.76C38.4914 173.564 38.9814 173.466 39.504 173.466C39.868 173.466 40.2134 173.518 40.54 173.62C40.876 173.723 41.1887 173.868 41.478 174.054V173.578H43.368V180.872C43.368 181.834 43.0554 182.576 42.43 183.098C41.814 183.621 40.9227 183.882 39.756 183.882C39.196 183.882 38.6547 183.826 38.132 183.714C37.6187 183.602 37.1474 183.439 36.718 183.224L37.39 181.726C37.7914 181.922 38.1834 182.067 38.566 182.16C38.9487 182.263 39.3314 182.314 39.714 182.314C40.2834 182.314 40.7127 182.188 41.002 181.936C41.3007 181.694 41.45 181.334 41.45 180.858V180.256C41.1607 180.471 40.8434 180.634 40.498 180.746C40.162 180.858 39.812 180.914 39.448 180.914ZM37.642 177.176C37.642 177.764 37.8427 178.264 38.244 178.674C38.6547 179.085 39.154 179.29 39.742 179.29C40.0874 179.29 40.4047 179.234 40.694 179.122C40.9834 179.001 41.2354 178.838 41.45 178.632V175.762C41.2447 175.557 40.9927 175.398 40.694 175.286C40.3954 175.165 40.0827 175.104 39.756 175.104C39.168 175.104 38.6687 175.305 38.258 175.706C37.8474 176.108 37.642 176.598 37.642 177.176ZM44.263 180.004L45.215 178.73C45.6444 179.01 46.0504 179.22 46.433 179.36C46.8157 179.491 47.1984 179.556 47.581 179.556C48.0104 179.556 48.351 179.486 48.603 179.346C48.8644 179.206 48.995 179.02 48.995 178.786C48.995 178.6 48.9204 178.45 48.771 178.338C48.631 178.226 48.4024 178.147 48.085 178.1L46.685 177.89C45.9664 177.778 45.4157 177.545 45.033 177.19C44.6597 176.836 44.473 176.364 44.473 175.776C44.473 175.076 44.7484 174.516 45.299 174.096C45.8497 173.676 46.587 173.466 47.511 173.466C48.043 173.466 48.561 173.546 49.065 173.704C49.569 173.854 50.0497 174.078 50.507 174.376L49.583 175.608C49.1817 175.375 48.799 175.202 48.435 175.09C48.071 174.969 47.7024 174.908 47.329 174.908C46.9837 174.908 46.7037 174.974 46.489 175.104C46.2837 175.235 46.181 175.408 46.181 175.622C46.181 175.818 46.2557 175.972 46.405 176.084C46.5637 176.187 46.8204 176.262 47.175 176.308L48.575 176.518C49.2844 176.621 49.8304 176.854 50.213 177.218C50.605 177.582 50.801 178.044 50.801 178.604C50.801 178.95 50.717 179.272 50.549 179.57C50.3904 179.86 50.171 180.112 49.891 180.326C49.611 180.541 49.275 180.709 48.883 180.83C48.491 180.952 48.0664 181.012 47.609 181.012C46.9464 181.012 46.3257 180.928 45.747 180.76C45.1684 180.583 44.6737 180.331 44.263 180.004Z" fill="#848484"></path><defs><linearGradient id="paint0_linear_111_17" x1="158" y1="0.995728" x2="158" y2="269.12" gradientUnits="userSpaceOnUse"><stop stop-color="#D6F9FA" stop-opacity="0"></stop><stop offset="0.53125" stop-color="#D6F9FA"></stop></linearGradient><linearGradient id="paint1_linear_111_17" x1="157.547" y1="0.995728" x2="157.547" y2="269.12" gradientUnits="userSpaceOnUse"><stop stop-color="#6CC5C4"></stop><stop offset="1" stop-color="#6CC5C4" stop-opacity="0"></stop></linearGradient></defs></svg>