<svg xmlns="http://www.w3.org/2000/svg" width="52" height="52" viewBox="0 0 52 52" fill="none"><g filter="url(#filter0_i_28_6)"><rect width="52" height="52" rx="5" fill="#E5FAF9"></rect></g><path d="M18.0867 36.4648L23.1625 30.3098L25.4843 33.2713L21.0091 38.9624C19.2952 41.1402 16.1237 38.8452 18.0867 36.4648ZM24.0145 22.4483C24.4979 20.8711 24.2758 19.5234 22.4593 17.5214L18.0207 12.1819C17.3908 11.4422 15.9064 12.5286 16.5266 13.4246L20.0765 17.7973C20.7479 18.6128 19.5003 19.6919 18.8069 18.852L15.1349 14.3304C14.4513 13.5467 13.0377 14.5819 13.7531 15.4779C14.7882 16.7231 16.3898 18.7568 17.425 20.002C18.1428 20.732 17.0515 21.8135 16.3435 20.9029L12.6983 16.4106C12.1637 15.8295 11.2896 16.1908 11.0577 16.8696C10.8086 17.5947 11.4215 18.1245 11.8389 18.6616L15.9064 23.9156C17.1687 25.3781 18.5798 26.2448 20.2205 25.7541C20.472 25.6784 20.7796 25.5246 21.1092 25.3219L32.0372 39.4287C32.6256 40.188 33.7609 40.2686 34.4982 39.6558L34.6667 39.5166C35.4968 38.8257 35.631 37.5634 34.9206 36.748L23.348 23.4518C23.6849 23.0758 23.9315 22.7193 24.0145 22.4483ZM27.1079 25.5246L28.9072 23.3419C26.5927 17.6044 35.1696 9.95777 39.3274 13.4735C44.3788 17.7485 36.8713 28.0515 31.5953 25.505L29.4639 28.2126L27.1079 25.5246Z" fill="#46C8C5"></path><defs><filter id="filter0_i_28_6" x="0" y="0" width="52" height="54" filterUnits="userSpaceOnUse" color-interpolation-filters="sRGB"><feGaussianBlur stdDeviation="2"></feGaussianBlur></filter></defs></svg>