<svg xmlns="http://www.w3.org/2000/svg" width="42" height="42" viewBox="0 0 42 42" fill="none"><g filter="url(#filter0_i_28_116)"><rect width="42" height="42" rx="4.03846" fill="#E5FAF9"></rect></g><path d="M31.1218 9H11.2122C9.99211 9 9 9.99211 9 11.2122V31.1218C9 32.3419 9.99211 33.334 11.2122 33.334H31.1218C32.3419 33.334 33.334 32.3419 33.334 31.1218V11.2122C33.334 9.99211 32.3419 9 31.1218 9ZM28.2059 16.0162L25.0777 19.1444C24.9697 19.2524 24.8282 19.3064 24.6867 19.3064C24.5452 19.3064 24.4037 19.2524 24.2957 19.1444C23.1971 18.0458 21.5645 17.6844 20.0975 18.0305L18.9051 15.4075C18.7798 15.1299 18.4526 15.0057 18.1728 15.1331C17.8946 15.2596 17.7721 15.5873 17.8984 15.8655L19.0603 18.4216C18.6918 18.6144 18.3402 18.8424 18.0383 19.1443C17.8222 19.3604 17.4723 19.3604 17.2563 19.1443L14.1281 16.0162C13.9121 15.8001 13.9121 15.4501 14.1281 15.2341C16.0081 13.3536 18.5081 12.3183 21.167 12.3183C23.8259 12.3183 26.3259 13.3536 28.2059 15.2342C28.4219 15.4502 28.4219 15.8002 28.2059 16.0162Z" fill="#46C8C5"></path><defs><filter id="filter0_i_28_116" x="0" y="0" width="42" height="43.6154" filterUnits="userSpaceOnUse" color-interpolation-filters="sRGB"><feGaussianBlur stdDeviation="1.61538"></feGaussianBlur></filter></defs></svg>